HIERARCHY
ROOT Hips
{
	OFFSET 0.00000 0.00000 0.00000
	CHANNELS 6 Xposition Yposition Zposition Zrotation Yrotation Xrotation 
	JOINT LHipJoint
	{
		OFFSET 0 0 0
		CHANNELS 3 Zrotation Yrotation Xrotation
		JOINT LeftUpLeg
		{
			OFFSET 1.38615 -1.80049 0.80104
			CHANNELS 3 Zrotation Yrotation Xrotation
			JOINT LeftLeg
			{
				OFFSET 2.50172 -6.87341 0.00000
				CHANNELS 3 Zrotation Yrotation Xrotation
				JOINT LeftFoot
				{
					OFFSET 2.67523 -7.35014 0.00000
					CHANNELS 3 Zrotation Yrotation Xrotation
					JOINT LeftToeBase
					{
						OFFSET 0.17446 -0.47932 2.13155
						CHANNELS 3 Zrotation Yrotation Xrotation
						End Site
						{
							OFFSET 0.00000 -0.00000 1.10023
						}
					}
				}
			}
		}
	}
	JOINT RHipJoint
	{
		OFFSET 0 0 0
		CHANNELS 3 Zrotation Yrotation Xrotation
		JOINT RightUpLeg
		{
			OFFSET -1.18047 -1.80049 0.80104
			CHANNELS 3 Zrotation Yrotation Xrotation
			JOINT RightLeg
			{
				OFFSET -2.59789 -7.13765 0.00000
				CHANNELS 3 Zrotation Yrotation Xrotation
				JOINT RightFoot
				{
					OFFSET -2.62125 -7.20183 0.00000
					CHANNELS 3 Zrotation Yrotation Xrotation
					JOINT RightToeBase
					{
						OFFSET -0.31287 -0.85960 2.07814
						CHANNELS 3 Zrotation Yrotation Xrotation
						End Site
						{
							OFFSET -0.00000 -0.00000 1.11766
						}
					}
				}
			}
		}
	}
	JOINT LowerBack
	{
		OFFSET 0 0 0
		CHANNELS 3 Zrotation Yrotation Xrotation
		JOINT Spine
		{
			OFFSET -0.01587 2.16157 -0.12309
			CHANNELS 3 Zrotation Yrotation Xrotation
			JOINT Spine1
			{
				OFFSET 0.04727 2.16674 -0.03569
				CHANNELS 3 Zrotation Yrotation Xrotation
				JOINT Neck
				{
					OFFSET 0 0 0
					CHANNELS 3 Zrotation Yrotation Xrotation
					JOINT Neck1
					{
						OFFSET -0.08586 1.60335 0.32783
						CHANNELS 3 Zrotation Yrotation Xrotation
						JOINT Head
						{
							OFFSET 0.07583 1.65857 -0.31618
							CHANNELS 3 Zrotation Yrotation Xrotation
							End Site
							{
								OFFSET 0.03386 1.69434 -0.14584
							}
						}
					}
				}
				JOINT LeftShoulder
				{
					OFFSET 0 0 0
					CHANNELS 3 Zrotation Yrotation Xrotation
					JOINT LeftArm
					{
						OFFSET 3.17393 1.01901 -0.52897
						CHANNELS 3 Zrotation Yrotation Xrotation
						JOINT LeftForeArm
						{
							OFFSET 5.25287 -0.00000 -0.00000
							CHANNELS 3 Zrotation Yrotation Xrotation
							JOINT LeftHand
							{
								OFFSET 3.51014 -0.00000 0.00000
								CHANNELS 3 Zrotation Yrotation Xrotation
								JOINT LeftFingerBase
								{
									OFFSET 0 0 0
									CHANNELS 3 Zrotation Yrotation Xrotation
									JOINT LeftHandIndex1
									{
										OFFSET 0.70618 -0.00000 -0.00000
										CHANNELS 3 Zrotation Yrotation Xrotation
										End Site
										{
											OFFSET 0.56934 -0.00000 -0.00000
										}
									}
								}
								JOINT LThumb
								{
									OFFSET 0 0 0
									CHANNELS 3 Zrotation Yrotation Xrotation
									End Site
									{
										OFFSET 0.57803 -0.00000 0.57803
									}
								}
							}
						}
					}
				}
				JOINT RightShoulder
				{
					OFFSET 0 0 0
					CHANNELS 3 Zrotation Yrotation Xrotation
					JOINT RightArm
					{
						OFFSET -2.99471 1.26495 -0.61125
						CHANNELS 3 Zrotation Yrotation Xrotation
						JOINT RightForeArm
						{
							OFFSET -5.28721 -0.00000 -0.00000
							CHANNELS 3 Zrotation Yrotation Xrotation
							JOINT RightHand
							{
								OFFSET -3.50544 -0.00000 0.00000
								CHANNELS 3 Zrotation Yrotation Xrotation
								JOINT RightFingerBase
								{
									OFFSET 0 0 0
									CHANNELS 3 Zrotation Yrotation Xrotation
									JOINT RightHandIndex1
									{
										OFFSET -0.88500 -0.00000 -0.00000
										CHANNELS 3 Zrotation Yrotation Xrotation
										End Site
										{
											OFFSET -0.71351 -0.00000 -0.00000
										}
									}
								}
								JOINT RThumb
								{
									OFFSET 0 0 0
									CHANNELS 3 Zrotation Yrotation Xrotation
									End Site
									{
										OFFSET -0.72440 -0.00000 0.72440
									}
								}
							}
						}
					}
				}
			}
		}
	}
}
MOTION
Frames: 12
Frame Time: .0083333
11.5568 17.9178 -16.4172 0 0 0 0 0 0 -21 0 0 0 0 0 0 0 0 0 0 0 0 0 0 21 0 0 0 0 0 0 0 0 0 0 0 0 0 0 0 0 0 0 0 0 0 0 -16 0 0 21 0 0 11 0 0 0 -8 0 0 0 0 0 0 0 0 0 0 0 0 0 0 0 0 0 0 0 0 8 0 0 0 0 0 0 0 0 0 0 0 0 0 0 0 0 0
11.5568 17.9178 -16.4172 0.8412 -70.7096 6.7196 0.0000 0.0000 0.0000 -16.4398 1.9522 -4.4107 0.1937 2.8339 7.8168 0.2143 -5.1949 -8.4626 0.7440 -5.5100 -15.3692 0.0000 0.0000 0.0000 22.0960 0.6668 -8.2752 -1.5100 -7.7607 21.9895 -1.0918 -8.0437 -24.1871 -0.1621 2.5942 -7.1510 -1.2832 1.5591 -4.2393 2.4178 2.0753 -1.1888 3.3088 1.0286 1.0181 -2.5137 8.7779 -18.5650 -1.3104 13.7198 29.6813 2.1106 5.4305 12.9276 -0.0000 -0.0000 0.0000 -90.8140 0.4536 19.0888 14.9034 -24.0114 -3.1865 -0.0000 -0.0000 14.5188 1.7064 40.4330 1.1069 -7.1250 0.0000 -0.0000 -43.9671 65.1730 -23.4578 -0.0000 -0.0000 0.0000 86.4988 -0.1405 5.6715 -16.0489 25.5869 -3.6671 0.0000 -0.0000 -3.9549 -14.4807 11.7032 -2.9987 7.1250 -0.0000 -0.0000 8.8639 -17.9878 5.7629
11.5577 17.9169 -16.4191 0.7371 -70.7049 6.8168 0.0000 0.0000 0.0000 -16.4001 1.9575 -4.3952 0.1913 2.8166 7.7685 0.2107 -5.0075 -8.3618 0.6554 -5.1780 -14.4170 0.0000 0.0000 0.0000 22.1342 0.7074 -8.2546 -1.5118 -7.7650 22.0025 -1.1103 -7.9500 -24.2677 -0.1583 2.5634 -7.0656 -1.9885 -0.1920 -4.1677 4.0905 -0.2764 -1.2558 5.3373 -0.1586 1.0738 -6.7002 10.5809 -20.9324 1.3114 17.3061 32.4438 4.5242 6.6470 13.7994 0.0000 0.0000 0.0000 -94.1127 1.0729 13.2900 15.1759 -24.3906 -3.2983 -0.0000 -0.0000 15.1867 1.5012 40.5257 0.9756 -7.1250 0.0000 -0.0000 -44.3053 65.1801 -23.6781 0.0000 0.0000 0.0000 83.1912 0.3647 11.5529 -15.7113 25.1277 -3.5225 0.0000 -0.0000 -4.2918 -14.7880 11.5446 -3.0242 7.1250 -0.0000 -0.0000 8.6516 -18.1294 5.5943
11.5585 17.9175 -16.4171 0.7757 -70.6837 6.8018 0.0000 0.0000 0.0000 -16.4256 1.9236 -4.4230 0.1925 2.8256 7.7936 0.2119 -4.9181 -8.3660 0.6428 -5.1291 -14.2773 0.0000 0.0000 0.0000 22.1051 0.5701 -8.3282 -1.5141 -7.7708 22.0199 -1.1158 -7.8466 -24.2371 -0.1662 2.6264 -7.2403 -1.3600 1.4354 -4.2672 2.5997 1.9091 -1.1184 3.5348 0.9431 1.1081 -4.2296 9.1911 -21.3610 1.3005 14.4263 32.4366 3.7647 5.6883 14.2552 -0.0000 0.0000 0.0000 -91.1517 0.2787 18.4555 14.8308 -23.9099 -3.1570 -0.0000 -0.0000 14.8243 1.1560 40.6087 0.7525 -7.1250 0.0000 -0.0000 -44.7615 65.1398 -23.9268 -0.0000 0.0000 0.0000 86.0815 -0.0311 6.7584 -15.9868 25.5028 -3.6403 0.0000 -0.0000 -3.9490 -15.6063 11.4198 -3.1655 7.1250 -0.0000 -0.0000 8.0807 -18.2028 5.2041
11.5598 17.9178 -16.4144 0.6685 -70.6522 6.9493 0.0000 0.0000 0.0000 -16.3996 1.8828 -4.4622 0.1919 2.8210 7.7808 0.2098 -4.9847 -8.3426 0.6906 -5.3127 -14.8026 0.0000 0.0000 0.0000 22.1370 0.4914 -8.4155 -1.5139 -7.7703 22.0184 -1.1098 -7.8578 -24.1962 -0.1875 2.7891 -7.6923 -1.8047 -0.0773 -4.2621 3.9381 -0.1267 -1.2686 5.0800 -0.0828 1.0969 -6.4650 10.5448 -20.7515 1.1171 17.1917 32.1352 4.3697 6.6273 13.6827 -0.0000 0.0000 0.0000 -93.8302 1.0702 13.4878 15.1603 -24.3689 -3.2918 -0.0000 -0.0000 15.3783 0.7341 40.4673 0.4764 -7.1250 0.0000 -0.0000 -44.9466 64.9196 -23.8225 -0.0000 0.0000 0.0000 83.4634 0.2223 11.5812 -15.7509 25.1817 -3.5393 0.0000 -0.0000 -4.7447 -15.5457 11.5428 -3.1861 7.1250 -0.0000 -0.0000 8.1221 -18.0810 5.2533
11.5609 17.9167 -16.4167 0.5623 -70.6543 7.0483 0.0000 0.0000 0.0000 -16.3477 1.9059 -4.4213 0.1873 2.7877 7.6882 0.2103 -5.0587 -8.3658 0.6785 -5.2670 -14.6716 0.0000 0.0000 0.0000 22.1876 0.6108 -8.3855 -1.5156 -7.7745 22.0312 -1.1074 -7.9364 -24.2346 -0.1959 2.8504 -7.8626 -1.1054 1.6055 -4.2625 2.3938 2.1294 -1.1317 3.1884 1.0543 1.0937 -3.7234 9.1118 -21.0676 0.7727 14.2544 31.9069 3.4124 5.6368 14.0686 0.0000 0.0000 0.0000 -90.7805 0.3053 18.7118 14.9344 -24.0547 -3.1992 -0.0000 -0.0000 15.0504 -0.0168 40.5631 -0.0109 -7.1250 0.0000 -0.0000 -45.8023 64.7733 -24.2150 0.0000 0.0000 0.0000 86.5083 -0.0972 6.1650 -15.9897 25.5067 -3.6415 0.0000 -0.0000 -3.9982 -15.6873 11.7564 -3.2751 7.1250 -0.0000 -0.0000 8.0216 -17.8525 5.2278
11.5602 17.9163 -16.4187 0.9893 -70.7509 6.5453 0.0000 0.0000 0.0000 -16.5080 2.0345 -4.2788 0.1828 2.7539 7.5943 0.2108 -5.1388 -8.3901 0.6095 -4.9968 -13.8995 0.0000 0.0000 0.0000 22.0266 0.6838 -8.2428 -1.5170 -7.7777 22.0409 -1.1106 -7.9313 -24.2570 -0.1870 2.7848 -7.6803 -1.9091 0.0718 -4.1287 3.8367 0.0806 -1.2547 5.0431 0.0235 1.0154 -5.0327 10.0803 -18.0900 -1.6578 16.4241 29.3392 2.7120 6.3255 12.4808 0.0000 -0.0000 0.0000 -93.7194 1.1419 13.6113 15.2163 -24.4466 -3.3150 -0.0000 -0.0000 15.5841 -0.3814 40.5421 -0.2479 -7.1250 0.0000 -0.0000 -46.1133 64.6554 -24.2905 0.0000 -0.0000 0.0000 83.6545 0.0747 11.2363 -15.7054 25.1196 -3.5200 0.0000 -0.0000 -3.5845 -16.3450 11.4202 -3.3234 7.1250 -0.0000 -0.0000 7.5634 -18.1521 4.8734
11.5585 17.9176 -16.4175 1.5753 -70.8376 5.9186 0.0000 0.0000 0.0000 -16.7415 2.1374 -4.1663 0.1786 2.7220 7.5057 0.2057 -5.1769 -8.3092 0.6530 -5.1688 -14.3908 0.0000 0.0000 0.0000 21.7987 0.6539 -8.1549 -1.5172 -7.7782 22.0424 -1.1182 -7.8721 -24.2748 -0.1822 2.7491 -7.5809 -1.4813 1.6473 -4.1364 2.3367 2.2036 -1.1243 3.3402 1.0930 1.0139 -2.0857 8.6327 -17.7658 -2.3362 13.5870 28.7657 1.5742 5.3453 12.5255 0.0000 0.0000 0.0000 -90.8435 0.4259 18.6320 14.9426 -24.0661 -3.2025 -0.0000 -0.0000 15.0791 -0.4767 40.8616 -0.3119 -7.1250 0.0000 -0.0000 -46.6914 64.8493 -24.8613 0.0000 0.0000 0.0000 86.5998 -0.1956 6.0135 -15.9197 25.4116 -3.6114 0.0000 -0.0000 -2.9202 -16.2992 11.4217 -3.3140 7.1250 -0.0000 -0.0000 7.5954 -18.1538 4.8941
11.5572 17.9194 -16.4177 1.5278 -70.7651 5.9961 0.0000 0.0000 0.0000 -16.7136 2.0765 -4.1348 0.1741 2.6880 7.4112 0.2064 -5.1831 -8.3224 0.7691 -5.6000 -15.6281 0.0000 0.0000 0.0000 21.8352 0.6101 -8.2183 -1.5178 -7.7799 22.0474 -1.1036 -7.9969 -24.2481 -0.1958 2.8495 -7.8599 -2.1222 -0.0267 -4.1524 3.8601 -0.0424 -1.2201 5.1836 -0.0398 1.0767 -4.8394 10.0875 -17.3253 -2.3722 16.4461 28.5477 2.3503 6.3344 12.1111 0.0000 0.0000 0.0000 -93.8291 1.1251 13.4268 15.2965 -24.5576 -3.3482 -0.0000 -0.0000 15.4201 -0.6997 41.4530 -0.4632 -7.1250 0.0000 -0.0000 -47.8264 65.1881 -25.9557 0.0000 0.0000 0.0000 83.6699 0.3244 10.7594 -15.6028 24.9791 -3.4765 0.0000 -0.0000 -4.0283 -15.1117 11.9181 -3.1919 7.1250 -0.0000 -0.0000 8.4218 -17.7269 5.5178
11.5569 17.9187 -16.4200 1.3276 -70.6779 6.2223 0.0000 0.0000 0.0000 -16.6227 1.9961 -4.1333 0.1726 2.6762 7.3785 0.2112 -5.2087 -8.4114 0.8260 -5.7985 -16.2009 0.0000 0.0000 0.0000 21.9311 0.5790 -8.2872 -1.5183 -7.7810 22.0508 -1.0866 -8.1143 -24.1972 -0.1863 2.7801 -7.6671 -1.3892 1.6042 -4.2344 2.3435 2.1420 -1.1653 3.2952 1.0620 1.0340 -2.0013 8.7206 -17.8642 -2.2654 13.6904 29.0243 1.6169 5.3913 12.6502 -0.0000 -0.0000 0.0000 -90.7079 0.5178 18.8531 15.0251 -24.1810 -3.2362 -0.0000 -0.0000 14.9019 -1.2897 41.4075 -0.8531 -7.1250 0.0000 -0.0000 -48.2999 64.9874 -26.0529 -0.0000 -0.0000 0.0000 86.6706 -0.0703 5.3644 -15.9055 25.3924 -3.6053 0.0000 -0.0000 -3.8782 -14.7353 12.0759 -3.1494 7.1250 -0.0000 -0.0000 8.6821 -17.5916 5.7184
11.5571 17.9168 -16.4242 1.2100 -70.6892 6.3269 0.0000 0.0000 0.0000 -16.5553 1.9954 -4.1857 0.1768 2.7086 7.4685 0.2109 -5.2418 -8.4136 0.8914 -6.0178 -16.8362 0.0000 0.0000 0.0000 21.9869 0.6668 -8.2242 -1.5158 -7.7749 22.0323 -1.0979 -8.0874 -24.2689 -0.1578 2.5595 -7.0548 -2.0026 0.0077 -4.1777 3.8630 -0.0018 -1.2379 5.1204 -0.0191 1.0684 -4.7285 10.1054 -17.4675 -2.3751 16.4786 28.7951 2.3583 6.3355 12.2485 -0.0000 -0.0000 0.0000 -93.7197 1.1683 13.3711 15.2329 -24.4695 -3.3218 -0.0000 -0.0000 15.7500 -1.6126 40.4764 -1.0469 -7.1250 0.0000 -0.0000 -47.1650 64.2635 -24.5460 -0.0000 -0.0000 0.0000 83.6743 0.2439 11.0598 -15.6348 25.0230 -3.4901 0.0000 -0.0000 -3.8104 -15.7271 11.7165 -3.2728 7.1250 -0.0000 -0.0000 7.9941 -17.8905 5.2028
11.5554 17.9179 -16.4255 1.1652 -70.7324 6.3411 0.0000 0.0000 0.0000 -16.5208 2.0228 -4.2402 0.1837 2.7609 7.6138 0.2105 -5.3095 -8.4216 0.8264 -5.8000 -16.2052 0.0000 0.0000 0.0000 22.0016 0.6819 -8.1508 -1.5110 -7.7631 21.9968 -1.1151 -7.9750 -24.3253 -0.1601 2.5784 -7.1071 -1.4653 1.5060 -4.2011 2.5400 2.0099 -1.2269 3.5328 0.9969 0.9510 -2.1885 8.8720 -17.6556 -2.3764 13.9957 29.1394 1.6436 5.4856 12.6516 -0.0000 0.0000 0.0000 -91.0443 0.7047 18.0389 14.8727 -23.9685 -3.1740 -0.0000 -0.0000 15.3721 -0.9647 40.0901 -0.6213 -7.1250 0.0000 -0.0000 -45.9854 64.1766 -23.7125 -0.0000 0.0000 0.0000 86.2701 -0.3662 6.6912 -15.8785 25.3556 -3.5938 0.0000 -0.0000 -3.2166 -16.2295 11.6347 -3.3596 7.1250 -0.0000 -0.0000 7.6435 -17.9395 4.9621
